<svg xmlns="http://www.w3.org/2000/svg" viewBox="0 0 66 66" width="256" height="256"><path fill="#60cbf5" d="M34.85 24.436H64v4.86H34.85z" class="color60CBF5 svgShape"></path><ellipse cx="53.863" cy="38.058" fill="#fb6464" rx="3.517" ry="3.505" class="colorFB6464 svgShape"></ellipse><ellipse cx="58.482" cy="38.059" fill="#60cbf5" rx="3.517" ry="3.505" class="color60CBF5 svgShape"></ellipse><path fill="#fb6464" d="M38.6 19.975v-1.6c0-1.04-.42-1.98-1.1-2.66a3.756 3.756 0 0 0-6.41 2.66v29.25c0 2.07 1.68 3.75 3.76 3.75 2.07 0 3.75-1.68 3.75-3.75v-1.6h15.76v8.24c0 .27-.23.5-.5.5H8.32c-.27 0-.5-.23-.5-.5v-14.12h14.4c1.1 0 2-.9 2-2v-10.29a2 2 0 0 0-2-2H7.82v-14.12c0-.28.23-.5.5-.5h45.54c.27 0 .5.22.5.5v8.24H38.6z" class="colorFB6464 svgShape"></path><path fill="#60cbf5" d="M3.999 27.853h18.22v10.289H3.999z" class="color60CBF5 svgShape"></path><circle cx="17.848" cy="32.998" r="2.667" fill="#ffffff" class="colorFFF svgShape"></circle><path fill="#3a3e59" d="M57.36 17.975v-6.24c0-1.93-1.57-3.5-3.5-3.5H8.32c-1.93 0-3.5 1.57-3.5 3.5v12.12h1v-12.12c0-1.379 1.122-2.5 2.5-2.5h45.54c1.379 0 2.5 1.121 2.5 2.5v6.24h1zm-3.5 39.79c1.93 0 3.5-1.57 3.5-3.5v-6.24h-1v6.24c0 1.379-1.121 2.5-2.5 2.5H8.32a2.503 2.503 0 0 1-2.5-2.5v-12.12h-1v12.12c0 1.93 1.57 3.5 3.5 3.5h45.54zM24.72 38.142V27.853c0-1.379-1.122-2.5-2.5-2.5H4a2.503 2.503 0 0 0-2.5 2.5v10.29c0 1.378 1.12 2.5 2.5 2.5h18.22c1.378 0 2.5-1.122 2.5-2.5zm-22.22 0V27.853c0-.827.672-1.5 1.5-1.5h18.22c.827 0 1.5.673 1.5 1.5v10.29c0 .826-.673 1.5-1.5 1.5H4c-.828 0-1.5-.674-1.5-1.5z" class="color3A3E59 svgShape"></path><path fill="#3a3e59" d="M61 19.475H39.1v-1.1a4.255 4.255 0 0 0-4.25-4.26 4.265 4.265 0 0 0-4.26 4.26v29.25a4.255 4.255 0 0 0 8.51 0v-1.1H61c1.93 0 3.5-1.57 3.5-3.5v-20.05a3.5 3.5 0 0 0-3.5-3.5zm-22.9 28.15a3.254 3.254 0 0 1-3.25 3.25 3.259 3.259 0 0 1-3.26-3.25v-29.25a3.254 3.254 0 1 1 6.51 0v1.1h-2.755v-2.16h-1v31.257h1v-2.047H38.1v1.1zm25.4-4.6c0 1.379-1.12 2.5-2.5 2.5H35.347v-25.05H61c1.427 0 2.5 1.175 2.5 2.5v20.05z" class="color3A3E59 s vgShape"></path></svg>